<svg xmlns="http://www.w3.org/2000/svg" width="38.922" height="44.25" viewBox="0 0 38.922 44.25"><defs><style>.a{fill:#2b3990;}.a,.b{stroke:#fff;stroke-width:0.25px;}.b{fill:#ed2024;}</style></defs><g transform="translate(-30.875 0.125)"><g transform="translate(31)"><path class="a" d="M65.8,5.156H64.516V3.867A3.872,3.872,0,0,0,60.648,0H34.867A3.872,3.872,0,0,0,31,3.867V34.977a3.872,3.872,0,0,0,3.867,3.867h1.289v1.289A3.872,3.872,0,0,0,40.023,44H65.8a3.872,3.872,0,0,0,3.867-3.867V9.023A3.872,3.872,0,0,0,65.8,5.156ZM37.289,9.935a3.841,3.841,0,0,0-1.133,2.734v23.6H34.867a1.291,1.291,0,0,1-1.289-1.289V3.867a1.291,1.291,0,0,1,1.289-1.289H60.648a1.291,1.291,0,0,1,1.289,1.289V5.156H43.669a3.842,3.842,0,0,0-2.734,1.133Zm6.6-2.2v5.156H38.734v-.221a1.281,1.281,0,0,1,.378-.911l3.646-3.646a1.281,1.281,0,0,1,.911-.378h.221Zm23.2,32.4A1.291,1.291,0,0,1,65.8,41.422H40.023a1.291,1.291,0,0,1-1.289-1.289V15.469H45.18a1.289,1.289,0,0,0,1.289-1.289V7.734H65.8a1.291,1.291,0,0,1,1.289,1.289Z" transform="translate(-31)"/></g><g transform="translate(41.313 18.219)"><path class="b" d="M172.914,212H152.289a1.289,1.289,0,0,0,0,2.578h20.625a1.289,1.289,0,0,0,0-2.578Z" transform="translate(-151 -212)"/></g><g transform="translate(41.313 23.375)"><path class="b" d="M172.914,272H152.289a1.289,1.289,0,0,0,0,2.578h20.625a1.289,1.289,0,0,0,0-2.578Z" transform="translate(-151 -272)"/></g><g transform="translate(41.313 28.531)"><path class="b" d="M172.914,332H152.289a1.289,1.289,0,0,0,0,2.578h20.625a1.289,1.289,0,0,0,0-2.578Z" transform="translate(-151 -332)"/></g><g transform="translate(41.313 33.688)"><path class="b" d="M172.914,392H152.289a1.289,1.289,0,0,0,0,2.578h20.625a1.289,1.289,0,0,0,0-2.578Z" transform="translate(-151 -392)"/></g></g></svg>