<svg xmlns="http://www.w3.org/2000/svg" width="16.952" height="16.952" viewBox="0 0 16.952 16.952"><defs><style>.a{fill:gray;}</style></defs><g transform="translate(0 -0.004)"><g transform="translate(0 1.215)"><path class="a" d="M13.925,41.4a.605.605,0,0,0-.605.605v6.054a.605.605,0,0,1-.605.605H1.816a.605.605,0,0,1-.605-.605V35.953a.605.605,0,0,1,.605-.605H9.081a.605.605,0,1,0,0-1.211H1.816A1.816,1.816,0,0,0,0,35.953V48.062a1.816,1.816,0,0,0,1.816,1.816h10.9a1.816,1.816,0,0,0,1.816-1.816V42.007A.605.605,0,0,0,13.925,41.4Z" transform="translate(0 -34.137)"/></g><g transform="translate(3.633 0.004)"><g transform="translate(0 0)"><path class="a" d="M115.049.683a2.317,2.317,0,0,0-3.278,0L103.8,8.657a.612.612,0,0,0-.146.237l-1.211,3.633a.605.605,0,0,0,.574.8.615.615,0,0,0,.191-.031l3.633-1.211a.606.606,0,0,0,.237-.147l7.975-7.975A2.318,2.318,0,0,0,115.049.683ZM114.193,3.1l-7.871,7.871-2.351.785.783-2.348,7.874-7.87A1.106,1.106,0,1,1,114.193,3.1Z" transform="translate(-102.409 -0.004)"/></g></g></g></svg>