<svg xmlns="http://www.w3.org/2000/svg" width="21.942" height="13.985" viewBox="0 0 21.942 13.985"><defs><style>.a{fill:#2b3990;}</style></defs><g transform="translate(0 -92.835)"><g transform="translate(0 92.835)"><g transform="translate(0 0)"><path class="a" d="M21.8,99.4c-.2-.268-4.867-6.566-10.832-6.566S.335,99.133.139,99.4a.724.724,0,0,0,0,.854c.2.268,4.867,6.566,10.832,6.566s10.636-6.3,10.832-6.566A.723.723,0,0,0,21.8,99.4Zm-10.832,5.973c-4.394,0-8.2-4.18-9.326-5.546,1.125-1.368,4.923-5.545,9.326-5.545s8.2,4.179,9.326,5.546C19.172,101.2,15.375,105.374,10.971,105.374Z" transform="translate(0 -92.835)"/></g></g><g transform="translate(6.631 95.487)"><g transform="translate(0 0)"><path class="a" d="M159.062,154.725a4.34,4.34,0,1,0,4.34,4.34A4.345,4.345,0,0,0,159.062,154.725Zm0,7.234a2.893,2.893,0,1,1,2.894-2.893A2.9,2.9,0,0,1,159.062,161.959Z" transform="translate(-154.722 -154.725)"/></g></g></g></svg>