<svg xmlns="http://www.w3.org/2000/svg" width="48.971" height="42.921" viewBox="0 0 48.971 42.921"><defs><style>.a{fill:#ed2024;}.b{fill:#2b3990;}</style></defs><g transform="translate(0 -26.576)"><g transform="translate(0 26.576)"><g transform="translate(0 0)"><path class="a" d="M178.984,159.668a5,5,0,1,0,5,5A5,5,0,0,0,178.984,159.668Zm0,7.612a2.617,2.617,0,0,1,0-5.233h0a2.617,2.617,0,1,1,0,5.233Z" transform="translate(-154.185 -144.519)"/><path class="b" d="M44.721,30.307,12.252,26.62a4.46,4.46,0,0,0-3.509,1.011,4.519,4.519,0,0,0-1.725,3.092L6.424,35.6H4.581A4.779,4.779,0,0,0,0,40.536V64.858A4.52,4.52,0,0,0,4.4,69.5q.09,0,.18,0H37.228a4.881,4.881,0,0,0,5-4.639v-.951a5.947,5.947,0,0,0,2.26-.951,4.936,4.936,0,0,0,1.725-3.211L48.944,35.6A4.817,4.817,0,0,0,44.721,30.307ZM39.845,64.858a2.5,2.5,0,0,1-2.617,2.26H4.581a2.141,2.141,0,0,1-2.2-2.077q0-.091,0-.183v-4.4L11.6,53.678a2.855,2.855,0,0,1,3.687.178l6.482,5.709a5.591,5.591,0,0,0,3.509,1.308A5.412,5.412,0,0,0,28.13,60.1l11.715-6.779V64.858Zm0-14.332L26.881,58.079a3.033,3.033,0,0,1-3.509-.3l-6.541-5.768a5.293,5.293,0,0,0-6.6-.238L2.38,57.484V40.536a2.4,2.4,0,0,1,2.2-2.557H37.228a2.736,2.736,0,0,1,2.617,2.557v9.991Zm6.722-15.247c0,.008,0,.016,0,.024L43.77,59.446A2.022,2.022,0,0,1,43,61.052c-.238.238-.773.357-.773.476V40.536a5.114,5.114,0,0,0-5-4.936H8.8l.535-4.638a2.736,2.736,0,0,1,.892-1.546,2.735,2.735,0,0,1,1.784-.476l32.41,3.746A2.379,2.379,0,0,1,46.567,35.279Z" transform="translate(0 -26.576)"/></g></g></g></svg>