<svg xmlns="http://www.w3.org/2000/svg" xmlns:xlink="http://www.w3.org/1999/xlink" width="40" height="40" viewBox="0 0 40 40"><defs><style>.a{fill:#522626;}.a,.c{stroke:#fff;}.a,.c,.f{stroke-linejoin:round;}.a,.f{stroke-width:2px;}.b{clip-path:url(#a);}.c{fill:#2b3990;stroke-width:0.5px;}.d{fill:#ed2024;}.e{fill:#fff;}.f{fill:none;stroke:#ed2024;}</style><clipPath id="a"><rect class="a" width="40" height="40" transform="translate(1382 463)"/></clipPath></defs><g transform="translate(-1382 -440)"><g class="b" transform="translate(0 -23)"><g transform="translate(1382 463)"><path class="c" d="M38.515,13.007l-2.5-1.875V2.344a1.172,1.172,0,0,0,0-2.344H28.984a1.172,1.172,0,0,0,0,2.344V5.859L22.109.7a3.536,3.536,0,0,0-4.218,0L1.485,13.007A3.518,3.518,0,0,0,3.6,19.336a3.477,3.477,0,0,0,1.163-.2V38.828A1.172,1.172,0,0,0,5.938,40H34.063a1.172,1.172,0,0,0,1.172-1.172V19.135a3.516,3.516,0,0,0,3.281-6.128ZM31.328,2.344h2.344V9.374L31.328,7.617Zm-9.375,21.25H18.047V16.406h3.906Zm2.344,0V15.234a1.172,1.172,0,0,0-1.172-1.172h-6.25A1.172,1.172,0,0,0,15.7,15.234v8.359H7.109V17.578L20,7.91l12.891,9.668v6.016ZM7.109,25.938H23.516v2.344H20a1.172,1.172,0,0,0-1.172,1.172v3.516H15.313a1.172,1.172,0,0,0-1.172,1.172v3.516H7.109Zm9.375,11.719V35.313H20a1.172,1.172,0,0,0,1.172-1.172V30.625h3.516a1.172,1.172,0,0,0,1.172-1.172V25.938h7.031V37.656Zm20.86-21.134a1.172,1.172,0,0,1-1.641.235l-15-11.25a1.172,1.172,0,0,0-1.406,0L4.3,16.758a1.172,1.172,0,0,1-1.64-.235,1.173,1.173,0,0,1,.235-1.641L19.3,2.578a1.18,1.18,0,0,1,1.406,0l16.406,12.3a1.173,1.173,0,0,1,.235,1.641Z"/></g></g><path class="d" d="M1,0H7A1,1,0,0,1,8,1v9a0,0,0,0,1,0,0H0a0,0,0,0,1,0,0V1A1,1,0,0,1,1,0Z" transform="translate(1398 454)"/><rect class="e" width="4" height="8" transform="translate(1400 456)"/><path class="f" d="M12174.57,6130H12164v-4.476h5.283v-4.733h4.431V6116H12183v14Z" transform="translate(-10767 -5651)"/></g></svg>