<svg xmlns="http://www.w3.org/2000/svg" width="69.526" height="83.469" viewBox="0 0 69.526 83.469"><defs><style>.a,.b{fill:none;}.b{stroke:#6f9edf;stroke-width:6px;}.c,.f{fill:#6f9edf;}.d{fill:#fff;font-size:14px;font-family:OpenSans-Bold, Open Sans;font-weight:700;}.e,.f{stroke:none;}</style></defs><g transform="translate(-241 -483.766)"><g class="a" transform="translate(247.247 483.766)"><path class="e" d="M0,0H48.725L63.279,17.039v66.43H0Z"/><path class="f" d="M 5.999992370605469 5.999992370605469 L 5.999992370605469 77.46874237060547 L 57.27869415283203 77.46874237060547 L 57.27869415283203 19.25241851806641 L 45.95889663696289 5.999992370605469 L 5.999992370605469 5.999992370605469 M -7.62939453125e-06 -7.62939453125e-06 L 48.7247428894043 -7.62939453125e-06 L 63.27869415283203 17.03874206542969 L 63.27869415283203 83.46874237060547 L -7.62939453125e-06 83.46874237060547 L -7.62939453125e-06 -7.62939453125e-06 Z"/></g><path class="b" d="M4029.336,2954.219v16.718h15.484v-2.818l-10.872-12.675-1.051-1.225Z" transform="translate(-3737.934 -2466.938)"/><rect class="c" width="38" height="19" transform="translate(241 499)"/><rect class="c" width="39" height="5" transform="translate(259 549)"/><rect class="c" width="39" height="5" transform="translate(259 539)"/><rect class="c" width="39" height="5" transform="translate(259 529)"/><text class="d" transform="translate(245 514)"><tspan x="0" y="0">DOC</tspan></text></g></svg>