<svg xmlns="http://www.w3.org/2000/svg" width="25.681" height="39.776" viewBox="0 0 25.681 39.776"><defs><style>.a{fill:#2b3990;}.b{fill:#ed2024;}</style></defs><g transform="translate(-454.677 -1052.931)"><path class="a" d="M487.665,1106.055a3.255,3.255,0,0,1,4.012,3.351,46.281,46.281,0,0,1-.447,6.771c-1.265,6.441-8.01,9.492-13.92,6.434a14,14,0,0,1-5.76-5.858c-1.048-1.874-2.082-3.756-3.07-5.662a10.808,10.808,0,0,1-.828-2.2,2.324,2.324,0,0,1,.6-2.557,2.8,2.8,0,0,1,3.149-.447,14.885,14.885,0,0,1,1.8,1.16c0-.9,0-1.8,0-2.695,0-1.518-.009-3.036.008-4.553a.889.889,0,0,0-.437-.865,5.879,5.879,0,1,1,9.192-4.63,5.68,5.68,0,0,1-2.559,4.632.837.837,0,0,0-.431.812c.029.745.009,1.493.009,2.324a3.2,3.2,0,0,1,4.352,1.813C485.47,1103.387,486.724,1104.218,487.665,1106.055Zm-12.9-3.882q0,3.572,0,7.144c0,.487.024.983-.57,1.154s-.807-.272-1.091-.672a16.441,16.441,0,0,0-1.621-2.013,2.262,2.262,0,0,0-1.2-.567c-.87-.141-1.333.367-1.131,1.224a7.825,7.825,0,0,0,.655,1.823q1.521,2.9,3.129,5.763a12.142,12.142,0,0,0,5.582,5.423,7.817,7.817,0,0,0,11.249-6.014,59.569,59.569,0,0,0,.335-6.191,1.372,1.372,0,0,0-.07-.405,1.437,1.437,0,0,0-2.535-.754.714.714,0,0,1-1.1.037,1.28,1.28,0,0,1-.212-.854,1.886,1.886,0,0,0-1.075-1.815c-.668-.315-1.13-.189-1.747.476a.733.733,0,0,1-1.135.087,1.821,1.821,0,0,1-.263-.92,1.871,1.871,0,0,0-1.166-1.679c-.826-.2-1.333.051-1.8.93-.219.413-.5.742-1,.635-.523-.111-.621-.543-.607-1.012,0-.1,0-.2,0-.3,0-2.874.008-5.748-.005-8.623a2.854,2.854,0,0,0-.184-1.034,1.142,1.142,0,0,0-1.165-.746,1.121,1.121,0,0,0-1.089.767,3.342,3.342,0,0,0-.182,1.094C474.761,1097.483,474.768,1099.828,474.768,1102.173Zm4.215-4.955a4.212,4.212,0,0,0,1.066-4.838,4.321,4.321,0,0,0-8.228,1.038c-.231,1.441.453,3.286,1.39,3.71,0-.842-.029-1.668.006-2.492a2.885,2.885,0,1,1,5.761.182C479.006,1095.582,478.984,1096.349,478.984,1097.218Z" transform="translate(-11.323 -31.1)"/><path class="b" d="M473.278,1054.526H456.243c0,.219,0,.428,0,.637q0,6.712,0,13.425c0,.787-.01,1.575-.06,2.359-.033.514.179.643.651.619.865-.044,1.731-.055,2.6-.06.6,0,.876.242.879.716a.828.828,0,0,1-.916.843c-1.259.006-2.519.01-3.778,0-.644,0-.934-.3-.934-.95q-.006-9.134,0-18.269c0-.632.277-.912.9-.913q9.2-.008,18.393,0c.653,0,.878.285.879,1.051q.006,3.844,0,7.688,0,4.11,0,8.221c0,.216.058.486-.047.636-.174.247-.451.564-.7.577s-.566-.27-.75-.5c-.121-.155-.077-.453-.078-.687q-.005-7.334,0-14.667Z"/></g></svg>