<svg xmlns="http://www.w3.org/2000/svg" xmlns:xlink="http://www.w3.org/1999/xlink" width="40" height="40" viewBox="0 0 40 40"><defs><style>.a{fill:#522626;stroke:#707070;}.b{clip-path:url(#a);}.c{fill:#2b3990;}.d{fill:#ed2024;}</style><clipPath id="a"><rect class="a" width="40" height="40" transform="translate(1002 602)"/></clipPath></defs><g class="b" transform="translate(-1002 -602)"><g transform="translate(1003.956 602)"><path class="c" d="M33.433,31.3l-2.276-5.85a4.828,4.828,0,0,0-4.527-3.1H24.341c-.028,0-.056,0-.083,0q-.2-.207-.4-.4v-.747h3.358a2.344,2.344,0,0,0,0-4.687H23.855a4.058,4.058,0,0,0-1.694-3.224,3.922,3.922,0,1,0-4.736,0,4.06,4.06,0,0,0-1.695,3.3v2.521a10.43,10.43,0,0,0-1.356.209V15.807a.781.781,0,0,0-.781-.781H11.972a2.334,2.334,0,0,0-.648-1.591L7.171,8.116A3.855,3.855,0,0,0,6.5,7.31a3.922,3.922,0,1,0-4.6-.485A3.877,3.877,0,0,0,0,10.156V20.545A7.627,7.627,0,0,0,1.227,24.7l.648,1V39.219A.781.781,0,0,0,2.656,40H8.533a.781.781,0,0,0,.781-.781A3.9,3.9,0,0,0,7.751,36.1V35.031a10.455,10.455,0,0,0,17.292.75h3.8a2.89,2.89,0,1,0,5.132,0h1.335A.781.781,0,0,0,36.089,35v-.54A3.215,3.215,0,0,0,33.433,31.3ZM19.793,7.813a2.359,2.359,0,1,1-2.359,2.359A2.362,2.362,0,0,1,19.793,7.813Zm-2.5,8.781a2.5,2.5,0,0,1,5,0V17.3a.781.781,0,0,0,.781.781h4.139a.781.781,0,0,1,0,1.563H23.074a.781.781,0,0,0-.781.781v.3a10.4,10.4,0,0,0-5-1.634Zm-5.892,0h1.411V19.8a10.526,10.526,0,0,0-5.061,4.239V16.491l.221.221a2.344,2.344,0,0,0,3.315,0C11.327,16.672,11.365,16.631,11.4,16.588ZM4.531,1.563A2.359,2.359,0,1,1,2.172,3.922,2.362,2.362,0,0,1,4.531,1.563ZM2.539,23.85a6.066,6.066,0,0,1-.977-3.3V20H6.189V35.313H3.438V25.469a.781.781,0,0,0-.125-.424Zm.9,14.587V36.875h1.97a2.348,2.348,0,0,1,2.21,1.563ZM7.523,14.052a.781.781,0,0,0-1.334.553v3.832H1.563V10.156a2.313,2.313,0,0,1,4.3-1.191.8.8,0,0,0,.054.078l4.206,5.388a.829.829,0,0,0,.063.071.781.781,0,0,1-1.1,1.105Zm9.13,24.385a8.9,8.9,0,1,1,8.9-8.9A8.911,8.911,0,0,1,16.653,38.438Zm10.422-9.83h0l2.548,5.612H26.008a10.4,10.4,0,0,0,1.108-4.682C27.116,29.223,27.1,28.913,27.075,28.607Zm4.332,9.83a1.328,1.328,0,1,1,1.328-1.328A1.33,1.33,0,0,1,31.406,38.438Zm0-4.219h-.063L28.294,27.5a.782.782,0,0,0-.711-.458h-.767a10.4,10.4,0,0,0-1.342-3.13h1.155a3.274,3.274,0,0,1,3.071,2.1l2.452,6.3a.781.781,0,0,0,.728.5,1.65,1.65,0,0,1,1.63,1.406Zm0,0"/><path class="d" d="M19.934,29.536a3.281,3.281,0,1,0-3.281,3.281A3.285,3.285,0,0,0,19.934,29.536Zm-5,0a1.719,1.719,0,1,1,1.719,1.719A1.721,1.721,0,0,1,14.934,29.536Zm0,0"/><path class="d" d="M23.151,28.755a.781.781,0,0,0-.781.781,5.709,5.709,0,0,1-3.048,5.057.781.781,0,1,0,.731,1.381,7.268,7.268,0,0,0,3.88-6.438A.781.781,0,0,0,23.151,28.755Zm0,0"/><path class="d" d="M16.663,35.254h0a.781.781,0,1,0-.006,1.563h.02a.781.781,0,0,0-.013-1.562Zm0,0"/></g></g></svg>