<svg xmlns="http://www.w3.org/2000/svg" xmlns:xlink="http://www.w3.org/1999/xlink" width="40" height="40" viewBox="0 0 40 40"><defs><style>.a{fill:#522626;stroke:#707070;}.b{clip-path:url(#a);}.c{fill:#2b3990;}.d{fill:#ed2024;}</style><clipPath id="a"><rect class="a" width="40" height="40" transform="translate(621 602)"/></clipPath></defs><g class="b" transform="translate(-621 -602)"><g transform="translate(622.299 605.668)"><g transform="translate(5.163 7.609)"><path class="c" d="M20.545,18.342A7.071,7.071,0,0,0,15.5,16.267a7.161,7.161,0,0,0-7.087,7.182v1.005a4,4,0,0,0,5.9,3.52,2.553,2.553,0,0,1,2.431,0,4,4,0,0,0,5.9-3.52V23.38A7.065,7.065,0,0,0,20.545,18.342Zm.653,6.113h0a2.56,2.56,0,0,1-3.776,2.253,3.988,3.988,0,0,0-3.8,0A2.56,2.56,0,0,1,9.85,24.454V23.449A5.719,5.719,0,0,1,15.5,17.706h.02A5.674,5.674,0,0,1,21.2,23.38Z" transform="translate(-8.412 -16.267)"/></g><g transform="translate(0 5.03)"><g transform="translate(0 0)"><path class="c" d="M4.687,12.861l-.385-.28a2.713,2.713,0,0,0-3.786.6h0a2.713,2.713,0,0,0,.6,3.786l.385.28a2.71,2.71,0,1,0,3.186-4.385ZM4.123,15.8a1.273,1.273,0,0,1-1.776.281l-.385-.28a1.273,1.273,0,0,1-.281-1.776h0a1.273,1.273,0,0,1,1.776-.281l.385.28A1.273,1.273,0,0,1,4.123,15.8Z" transform="translate(0 -12.065)"/></g></g><g transform="translate(18.747 5.094)"><path class="c" d="M35.831,13.286a2.713,2.713,0,0,0-3.786-.6l-.385.28a2.71,2.71,0,0,0,3.186,4.385l.385-.28A2.713,2.713,0,0,0,35.831,13.286Zm-1.445,2.622-.385.28a1.272,1.272,0,0,1-1.495-2.057l.385-.28a1.272,1.272,0,0,1,1.495,2.057Z" transform="translate(-30.545 -12.17)"/></g><g transform="translate(5.665 0)"><path class="c" d="M14.911,6.949l-.391-1.2A2.71,2.71,0,0,0,9.365,7.419l.391,1.2a2.709,2.709,0,0,0,3.415,1.74h0a2.71,2.71,0,0,0,1.74-3.415ZM13.467,8.363a1.263,1.263,0,0,1-.74.632h0a1.273,1.273,0,0,1-1.6-.816l-.391-1.2a1.272,1.272,0,1,1,2.419-.786l.391,1.2A1.263,1.263,0,0,1,13.467,8.363Z" transform="translate(-9.231 -3.87)"/></g><g transform="translate(13.071 0.026)"><path class="c" d="M25.236,4.045a2.713,2.713,0,0,0-3.415,1.74l-.391,1.2a2.71,2.71,0,1,0,5.155,1.675l.391-1.2A2.713,2.713,0,0,0,25.236,4.045Zm.372,2.971-.391,1.2a1.273,1.273,0,0,1-1.6.816h0a1.271,1.271,0,0,1-.816-1.6l.391-1.2a1.272,1.272,0,1,1,2.419.786Z" transform="translate(-21.296 -3.912)"/></g></g><g transform="translate(639.593 623.45)"><g transform="translate(4.05 5.969)"><path class="d" d="M17.931,17.895a5.547,5.547,0,0,0-3.958-1.627A5.618,5.618,0,0,0,8.412,21.9v.789a3.137,3.137,0,0,0,4.627,2.761,2,2,0,0,1,1.907,0,3.137,3.137,0,0,0,4.627-2.761v-.843A5.543,5.543,0,0,0,17.931,17.895Zm.513,4.8h0a2.009,2.009,0,0,1-2.962,1.768,3.129,3.129,0,0,0-2.979,0A2.009,2.009,0,0,1,9.54,22.69V21.9A4.487,4.487,0,0,1,13.976,17.4h.016a4.451,4.451,0,0,1,4.451,4.451Z" transform="translate(-8.412 -16.267)"/></g><g transform="translate(0 3.946)"><g transform="translate(0 0)"><path class="d" d="M3.677,12.69l-.3-.219a2.129,2.129,0,0,0-2.97.47h0a2.129,2.129,0,0,0,.47,2.97l.3.219a2.126,2.126,0,1,0,2.5-3.44ZM3.235,15a1,1,0,0,1-1.393.221L1.539,15A1,1,0,0,1,1.318,13.6h0a1,1,0,0,1,1.393-.221l.3.219A1,1,0,0,1,3.235,15Z" transform="translate(0 -12.065)"/></g></g><g transform="translate(14.708 3.997)"><path class="d" d="M34.692,13.046a2.129,2.129,0,0,0-2.97-.47l-.3.219a2.126,2.126,0,0,0,2.5,3.44l.3-.219A2.129,2.129,0,0,0,34.692,13.046ZM33.559,15.1l-.3.219a1,1,0,0,1-1.173-1.614l.3-.219A1,1,0,0,1,33.559,15.1Z" transform="translate(-30.545 -12.17)"/></g><g transform="translate(4.445 0)"><path class="d" d="M13.687,6.285,13.38,5.34A2.126,2.126,0,0,0,9.336,6.655l.307.945a2.126,2.126,0,0,0,2.679,1.365h0a2.126,2.126,0,0,0,1.365-2.679ZM12.554,7.4a.991.991,0,0,1-.581.5h0a1,1,0,0,1-1.257-.64l-.307-.945a1,1,0,1,1,1.9-.616l.307.945A.991.991,0,0,1,12.554,7.4Z" transform="translate(-9.231 -3.87)"/></g><g transform="translate(10.254 0.02)"><path class="d" d="M24.387,4.016a2.129,2.129,0,0,0-2.679,1.365l-.307.945A2.126,2.126,0,1,0,25.445,7.64l.307-.945A2.129,2.129,0,0,0,24.387,4.016Zm.292,2.33-.307.945a1,1,0,0,1-1.257.64h0a1,1,0,0,1-.64-1.257l.307-.945a1,1,0,1,1,1.9.617Z" transform="translate(-21.296 -3.912)"/></g></g></g></svg>