<svg xmlns="http://www.w3.org/2000/svg" xmlns:xlink="http://www.w3.org/1999/xlink" width="40" height="40" viewBox="0 0 40 40"><defs><style>.a{fill:#522626;}.b{clip-path:url(#a);}.c{fill:#ed2024;}.d{fill:#2b3990;}</style><clipPath id="a"><rect class="a" width="40" height="40" transform="translate(1763 463)"/></clipPath></defs><g class="b" transform="translate(-1763 -463)"><g transform="translate(1758.333 461.667)"><path class="c" d="M25.333,20.667V19.4a2.173,2.173,0,0,0-1.742-2.125l-.33-.066q-.369-.074-.739-.119A.665.665,0,0,0,22,16.833h-.114a.554.554,0,0,1-.553-.553V14.833a.667.667,0,1,0-1.333,0V16.28a1.875,1.875,0,0,0,.18.8q-.388.046-.775.123l-.33.066A2.173,2.173,0,0,0,17.333,19.4v1.27a.667.667,0,0,0,.667.667h6.667a.667.667,0,0,0,.667-.667ZM24,20H18.667v-.6a.836.836,0,0,1,.67-.817l.33-.066a8.456,8.456,0,0,1,3.334,0l.33.066A.835.835,0,0,1,24,19.4Z"/><circle class="c" cx="0.833" cy="0.833" r="0.833" transform="translate(17.333 13.917)"/><circle class="c" cx="0.833" cy="0.833" r="0.833" transform="translate(23.667 14.083)"/><path class="d" d="M41.083,22.146,37.75,19.479A.667.667,0,0,0,36.667,20v5.172a1.333,1.333,0,0,1-2.667,0V20a.667.667,0,0,0-1.083-.521l-3.333,2.667a.667.667,0,0,0-.25.521v5.415l-4.667-1.867V24.436A6.669,6.669,0,0,0,28,18.667v-2h.333A1.669,1.669,0,0,0,30,15V10.833a1.5,1.5,0,0,0-.611-1.205l-.308-1.5a7.29,7.29,0,0,0-4.969-5.514l-.028-.167a1.329,1.329,0,0,0-1.315-1.114H19.9a1.329,1.329,0,0,0-1.315,1.114l-.028.167a7.289,7.289,0,0,0-4.969,5.514l-.308,1.5a1.5,1.5,0,0,0-.611,1.205V15a1.669,1.669,0,0,0,1.667,1.667h.333v2A6.669,6.669,0,0,0,18,24.436v1.779l-5.39,2.156A7.3,7.3,0,0,0,8,35.18v5.486a.667.667,0,0,0,.667.667H38a.667.667,0,0,0,.667-.667v-9.64l2.366-1.553a.667.667,0,0,0,.3-.557v-6.25A.667.667,0,0,0,41.083,22.146ZM32,40H30.667V30.152L32,31.027ZM13.333,29.518l3.358-1.343c0,.012.006.024.01.036l1.333,4a.667.667,0,0,0,.232.323l2.4,1.8v.333H13.333ZM22,34.333l2.4-1.8a.667.667,0,0,0,.233-.323l1.333-4c0-.012.007-.024.01-.036l3.358,1.343v5.149H22ZM13.333,36h7.333v1.333H13.333ZM22,36h7.333v1.333H22ZM14,12V10.833a.167.167,0,0,1,.167-.167H28.5a.167.167,0,0,1,.167.167V12Zm14.667,3a.333.333,0,0,1-.333.333H28v-2h.667Zm-.892-6.6.192.936H25.231l-.867-5.2A5.962,5.962,0,0,1,27.775,8.4ZM22.769,2.667,23.88,9.333H18.787L19.9,2.667ZM18.3,4.135l-.867,5.2H14.7l.192-.936A5.962,5.962,0,0,1,18.3,4.135Zm-3.969,11.2A.333.333,0,0,1,14,15V13.333h.667v2ZM16,18.667V13.333H26.667v5.333a5.333,5.333,0,1,1-10.667,0Zm5.333,6.667a6.642,6.642,0,0,0,2-.307v1.307l-2,1.5-2-1.5V25.026a6.642,6.642,0,0,0,2,.307Zm-2.767,2.092L20.933,29.2a.667.667,0,0,0,.8,0L24.1,27.425l.647.259c-.018.033-1.314,3.908-1.314,3.908l-2.1,1.574-2.1-1.575s-1.3-3.875-1.314-3.908ZM9.333,35.18A5.967,5.967,0,0,1,12,30.19V40H9.333Zm4,3.486h7.333V40H13.333ZM22,40V38.667h7.333V40ZM40,28.557l-2.366,1.553a.667.667,0,0,0-.3.557V40H36V32a.667.667,0,0,0-1.333,0v8H33.333V30.667a.667.667,0,0,0-.3-.557l-2.366-1.553v-5.57l2-1.6v3.785a2.667,2.667,0,0,0,5.333,0V21.387l2,1.6Z"/></g></g></svg>