<svg xmlns="http://www.w3.org/2000/svg" xmlns:xlink="http://www.w3.org/1999/xlink" width="40" height="40" viewBox="0 0 40 40"><defs><style>.a{fill:#522626;stroke:#707070;}.b{clip-path:url(#a);}.c{fill:#2b3990;}.d{fill:#ed2024;}</style><clipPath id="a"><rect class="a" width="40" height="40" transform="translate(1002 463)"/></clipPath></defs><g class="b" transform="translate(-1002 -463)"><g transform="translate(997.807 458.806)"><path class="c" d="M40.968,37.419V32.9a.645.645,0,0,0-.645-.645H37.742a.645.645,0,0,0-.645.645v4.516H35.161V32.9a.645.645,0,0,0-.645-.645H31.935a.645.645,0,0,0-.645.645v4.516H29.355V32.9a.645.645,0,0,0-.645-.645H26.129a.645.645,0,0,0-.645.645v4.516H21.767a2.9,2.9,0,0,0-.823-4.04.643.643,0,0,0-.105-.218l-1.314-1.753a9.154,9.154,0,0,0-2.855-2.49l6.163-7.136a.645.645,0,0,0,.137-.158l3.805-4.406V21.29h-1.29a.645.645,0,0,0-.645.645v4.516a.645.645,0,0,0,.645.645H30a.645.645,0,0,0,.645-.645V21.935A.645.645,0,0,0,30,21.29H28.065V10.323a.641.641,0,0,0-.012-.117c0-.012-.005-.024-.009-.036a.681.681,0,0,0-.024-.076c0-.012-.009-.024-.015-.036a.623.623,0,0,0-.043-.078l-.012-.02a.632.632,0,0,0-.071-.086l-.021-.019a.641.641,0,0,0-.065-.054l-.032-.021a.633.633,0,0,0-.068-.037l-.035-.016-.015-.007a.664.664,0,0,0-.081-.023l-.015,0a.636.636,0,0,0-.115-.012h-.013l-.023,0a.639.639,0,0,0-.084.009l-.037.007a.645.645,0,0,0-.094.029l-.014,0a.631.631,0,0,0-.1.053l-.028.02a.62.62,0,0,0-.062.051l-.028.028c-.007.007-.015.014-.021.021L11.639,27.742H8.71a.645.645,0,0,0-.645.645v5.007a2.9,2.9,0,0,0-.795,4.033,3.224,3.224,0,0,0,.15,6.444H40.968a3.226,3.226,0,1,0,0-6.452ZM29.355,25.806H26.129V22.581h3.226Zm10.323,7.742v9.032h-1.29V33.548ZM37.1,38.71v3.871H35.161V38.71Zm-3.226-5.161v9.032h-1.29V33.548ZM31.29,38.71v3.871H29.355V38.71Zm-3.226-5.161v9.032h-1.29V33.548Zm-14.783-5.74,1.732-2.021a.641.641,0,0,0,.148.019h2.491l-2.2,2.544a9.192,9.192,0,0,0-2.173-.542Zm8.9-10.389H24.9l-2.786,3.226H19.421Zm-3.871,4.516H21l-2.229,2.581H16.1Zm8.459-6.692-.83.962a.637.637,0,0,0-.3-.076H23.292l3.482-4.062ZM9.355,29.032H12.19a7.915,7.915,0,0,1,6.3,3.151l.54.72H9.677a2.917,2.917,0,0,0-.323.019Zm.323,5.161h9.677a1.613,1.613,0,1,1,0,3.226H9.677a1.613,1.613,0,0,1,0-3.226ZM5.484,40.645A1.938,1.938,0,0,1,7.419,38.71H25.484v3.871H7.419A1.938,1.938,0,0,1,5.484,40.645Zm35.484,1.935V38.71a1.935,1.935,0,1,1,0,3.871Z"/><path class="d" d="M31.31,22.737a.645.645,0,0,0,.782.47l2.581-.645a.645.645,0,1,0-.313-1.252l-2.581.645a.645.645,0,0,0-.47.782Z"/><path class="d" d="M34.673,26.471l-2.581-.645a.645.645,0,1,0-.313,1.252l2.581.645a.645.645,0,1,0,.313-1.252Z"/><path class="d" d="M41.461,17.686a.645.645,0,1,0-.268,1.262c.217.046.439.088.66.125a.645.645,0,0,0,.215-1.272c-.2-.034-.408-.073-.607-.115Z"/><path class="d" d="M35.112,16.2c.18.134.365.265.548.39a.645.645,0,1,0,.726-1.067c-.168-.114-.337-.235-.5-.358a.645.645,0,0,0-.771,1.035Z"/><path class="d" d="M39.1,16.968c-.191-.077-.382-.158-.567-.242A.645.645,0,1,0,38,17.9c.2.091.41.18.618.264a.645.645,0,0,0,.481-1.2Z"/><path class="d" d="M33.1,14.413a.645.645,0,0,0,.935-.889c-.142-.149-.282-.3-.416-.457a.645.645,0,0,0-.972.849c.146.167.3.334.453.5Z"/><path class="d" d="M31.059,11.751a.645.645,0,0,0,1.1-.673c-.107-.176-.212-.355-.311-.534a.645.645,0,0,0-1.128.626c.108.195.222.39.338.581Z"/><path class="d" d="M7.742,12.9h5.806A2.258,2.258,0,0,0,13.6,8.388a3.219,3.219,0,0,0-5.9,0A2.258,2.258,0,0,0,7.742,12.9Zm0-3.226a.959.959,0,0,1,.238.035.645.645,0,0,0,.787-.478,1.928,1.928,0,0,1,3.757,0,.645.645,0,0,0,.787.478.965.965,0,1,1,.238,1.9H7.742a.968.968,0,0,1,0-1.935Z"/><path class="d" d="M39.032,7.742a.645.645,0,0,0,.645-.645V5.161a.645.645,0,1,0-1.29,0V7.1A.645.645,0,0,0,39.032,7.742Z"/><path class="d" d="M39.677,9.677a.645.645,0,1,0-1.29,0v1.935a.645.645,0,1,0,1.29,0Z"/><path class="d" d="M35.806,9.032h1.935a.645.645,0,0,0,0-1.29H35.806a.645.645,0,0,0,0,1.29Z"/><path class="d" d="M40.323,9.032h1.935a.645.645,0,0,0,0-1.29H40.323a.645.645,0,0,0,0,1.29Z"/><path class="d" d="M8.316,18.71a2.329,2.329,0,1,0,2.329-2.329A2.332,2.332,0,0,0,8.316,18.71Zm3.368,0a1.039,1.039,0,1,1-1.039-1.039A1.04,1.04,0,0,1,11.684,18.71Z"/></g></g></svg>