<svg xmlns="http://www.w3.org/2000/svg" xmlns:xlink="http://www.w3.org/1999/xlink" width="40" height="40" viewBox="0 0 40 40"><defs><style>.a,.c{fill:#2b3990;}.a{stroke:#707070;}.b{clip-path:url(#a);}.d{fill:#ed2024;}</style><clipPath id="a"><rect class="a" width="40" height="40" transform="translate(621 463)"/></clipPath></defs><g class="b" transform="translate(-621 -463)"><g transform="translate(621 463)"><path class="c" d="M38.951,16.52A.648.648,0,0,0,40,16.011V12.555a.648.648,0,0,0-.247-.509L29.2,3.735a2.024,2.024,0,0,0-2.513,0l-3.97,3.128V5.644A.648.648,0,0,0,22.073,5H19.309a.648.648,0,0,0-.648.648v4.419l-2.518,1.984a.648.648,0,0,0-.247.509v3.456a.648.648,0,0,0,1.049.509l.333-.263v6.314L11.235,17.81a2.024,2.024,0,0,0-2.513,0L.247,24.487A.648.648,0,0,0,0,25v3.456a.648.648,0,0,0,1.049.509l.333-.263v6.708H.648a.648.648,0,1,0,0,1.3h38.7a.648.648,0,1,0,0-1.3h-.734V16.257l.333.263ZM19.957,6.292h1.469V7.884L19.957,9.042Zm-2.765,6.578,10.3-8.116a.732.732,0,0,1,.909,0l10.3,8.116v1.806L28.349,6.517a.648.648,0,0,0-.8,0L17.192,14.675ZM1.3,25.31l8.228-6.483a.732.732,0,0,1,.909,0l6.846,5.394v1.806l-6.9-5.436a.648.648,0,0,0-.8,0L1.3,27.116V25.31Zm1.382,2.367,7.3-5.752,7.3,5.752v7.729H14.428V27.76a.648.648,0,0,0-.648-.648h-7.6a.648.648,0,0,0-.648.648v7.646H2.678V27.677Zm4.147,3.5h6.307v1.469H6.825Zm6.307-1.3H6.825V28.408h6.307Zm-6.307,4.06h6.307v1.469H6.825ZM25.572,30.57l-.043,0a.648.648,0,0,0,0,1.3l.043,0v3.544H22.721v-8.38h2.851Zm11.749,4.836H26.868V26.378a.648.648,0,0,0-.648-.648H22.073a.648.648,0,0,0-.648.648v9.028H18.575V15.236l9.374-7.385,9.374,7.385Z"/><path class="d" d="M29.676,32.555h4.147a.648.648,0,0,0,.648-.648V26.378a.648.648,0,0,0-.648-.648H29.676a.648.648,0,0,0-.648.648v5.529A.648.648,0,0,0,29.676,32.555Zm.648-1.3V29.1h2.851v2.16Zm2.851-4.233V27.8H30.324v-.778Z"/><path class="d" d="M29.676,22.879h4.147a.648.648,0,0,0,.648-.648V16.7a.648.648,0,0,0-.648-.648H29.676a.648.648,0,0,0-.648.648v5.529A.648.648,0,0,0,29.676,22.879Zm.648-1.3v-2.16h2.851v2.16Zm2.851-4.233v.778H30.324V17.35Z"/><path class="d" d="M26.22,16.054H22.073a.648.648,0,0,0-.648.648v5.529a.648.648,0,0,0,.648.648H26.22a.648.648,0,0,0,.648-.648V16.7a.648.648,0,0,0-.648-.648Zm-.648,1.3v.778H22.721V17.35Zm-2.851,4.233v-2.16h2.851v2.16Z"/></g></g></svg>