<svg xmlns="http://www.w3.org/2000/svg" xmlns:xlink="http://www.w3.org/1999/xlink" width="40" height="40" viewBox="0 0 40 40"><defs><style>.a{fill:#2b3990;}.b{clip-path:url(#a);}.c{fill:#ed2024;}</style><clipPath id="a"><rect class="a" width="40" height="40" transform="translate(1763 602)"/></clipPath></defs><g class="b" transform="translate(-1763 -602)"><g transform="translate(1763 602)"><path class="a" d="M39.375,26.563H37.5v-3.75h1.25a.625.625,0,0,0,.616-.728l-.625-3.75a.625.625,0,0,0-.616-.523h-2.5a.625.625,0,0,0-.616.523l-.625,3.75a.625.625,0,0,0,.616.728h1.25v3.75h-2.5a.514.514,0,0,0-.062.013,3.129,3.129,0,0,0-3.062-2.513h-1.25V22.188A1.875,1.875,0,0,0,27.5,20.313h-5a1.875,1.875,0,0,0-1.875,1.875v1.875h-1.25V22.188A1.875,1.875,0,0,0,17.5,20.313h-5a1.875,1.875,0,0,0-1.875,1.875v1.875H9.375a3.129,3.129,0,0,0-3.062,2.513.514.514,0,0,0-.062-.013H3.75v-3.75H5a.625.625,0,0,0,.616-.728l-.625-3.75a.625.625,0,0,0-.616-.522h-2.5a.625.625,0,0,0-.616.523l-.625,3.75a.625.625,0,0,0,.616.728H2.5v3.75H.625A.625.625,0,0,0,0,27.188v6.875a.625.625,0,0,0,.625.625h38.75A.625.625,0,0,0,40,34.063V27.188A.625.625,0,0,0,39.375,26.563Zm-37.387-5,.416-2.5H3.846l.416,2.5ZM5.625,33.438H1.25V27.813H5.625Zm16.25-11.25a.625.625,0,0,1,.625-.625h5a.625.625,0,0,1,.625.625v1.875h-6.25Zm-10,0a.625.625,0,0,1,.625-.625h5a.625.625,0,0,1,.625.625v1.875h-6.25ZM32.5,33.438H7.5V31.563h25Zm0-3.125H7.5V27.188a1.875,1.875,0,0,1,1.875-1.875h21.25A1.875,1.875,0,0,1,32.5,27.188Zm3.238-8.75.416-2.5H37.6l.416,2.5ZM38.75,33.438H34.375V27.813H38.75Z"/><path class="c" d="M12.5,16.563H26.25a.625.625,0,0,0,.625-.625v-10a.625.625,0,0,0-.625-.625H12.5a.625.625,0,0,0-.625.625v10A.625.625,0,0,0,12.5,16.563Zm.625-10h12.5V12.9l-1.387-1.733a.625.625,0,0,0-.453-.234.642.642,0,0,0-.477.182L21.25,13.179,17.317,9.246a.625.625,0,0,0-.848-.033l-3.344,2.866Zm0,7.162,3.717-3.187L20.808,14.5a.625.625,0,0,0,.884,0L23.7,12.5l1.927,2.411v.405h-12.5Z"/><path class="c" d="M21.875,10.938A1.875,1.875,0,1,0,20,9.063,1.875,1.875,0,0,0,21.875,10.938Zm0-2.5a.625.625,0,1,1-.625.625A.625.625,0,0,1,21.875,8.438Z"/></g></g></svg>