<svg xmlns="http://www.w3.org/2000/svg" width="14.865" height="17.572" viewBox="0 0 14.865 17.572"><defs><style>.a{fill:#ed2024;stroke:#fff;stroke-width:0.25px;}</style></defs><g transform="translate(-39.875 0.125)"><g transform="translate(46.631 7.542)"><rect class="a" width="1.353" height="7.071"/></g><g transform="translate(49.338 7.542)"><rect class="a" width="1.353" height="7.071"/></g><g transform="translate(43.924 7.542)"><g transform="translate(0)"><rect class="a" width="1.353" height="7.071"/></g></g><g transform="translate(40)"><g transform="translate(0)"><path class="a" d="M52.585,2.467H50.522V2.03A2.032,2.032,0,0,0,48.492,0H46.124a2.032,2.032,0,0,0-2.03,2.03v.438H42.03A2.032,2.032,0,0,0,40,4.5V6.191h1.353v9.1a2.032,2.032,0,0,0,2.03,2.03h7.849a2.032,2.032,0,0,0,2.03-2.03v-9.1h1.353V4.5A2.032,2.032,0,0,0,52.585,2.467ZM45.447,2.03a.677.677,0,0,1,.677-.677h2.368a.677.677,0,0,1,.677.677v.438H45.447Zm6.462,13.262a.677.677,0,0,1-.677.677H43.383a.677.677,0,0,1-.677-.677v-9.1h9.2ZM53.262,4.838H41.353V4.5a.677.677,0,0,1,.677-.677H52.585a.677.677,0,0,1,.677.677Z" transform="translate(-40)"/></g></g></g></svg>